# Blender v2.80 (sub 75) OBJ File: 'Bookshelf.blend'
# www.blender.org
mtllib Bookshelf.mtl
o Back_Cube
v -0.800000 3.000000 -1.000000
v -0.800000 -3.000000 -1.000000
v -0.800000 3.000000 1.000000
v -0.800000 -3.000000 1.000000
v -1.200000 3.000000 -1.000000
v -1.200000 -3.000000 -1.000000
v -1.200000 3.000000 1.000000
v -1.200000 -3.000000 1.000000
vt 0.375000 0.000000
vt 0.625000 0.000000
vt 0.625000 0.250000
vt 0.375000 0.250000
vt 0.375000 0.250000
vt 0.625000 0.250000
vt 0.625000 0.500000
vt 0.375000 0.500000
vt 0.625000 0.750000
vt 0.375000 0.750000
vt 0.625000 0.750000
vt 0.625000 1.000000
vt 0.375000 1.000000
vt 0.125000 0.500000
vt 0.375000 0.500000
vt 0.375000 0.750000
vt 0.125000 0.750000
vt 0.625000 0.500000
vt 0.875000 0.500000
vt 0.875000 0.750000
vn 0.0000 1.0000 0.0000
vn 0.0000 0.0000 1.0000
vn -1.0000 0.0000 0.0000
vn 0.0000 -1.0000 0.0000
vn 1.0000 0.0000 0.0000
vn 0.0000 0.0000 -1.0000
usemtl Material
s off
f 1/1/1 5/2/1 7/3/1 3/4/1
f 4/5/2 3/6/2 7/7/2 8/8/2
f 8/8/3 7/7/3 5/9/3 6/10/3
f 6/10/4 2/11/4 4/12/4 8/13/4
f 2/14/5 1/15/5 3/16/5 4/17/5
f 6/18/6 5/19/6 1/20/6 2/11/6
o Shelf-1_Cube.001
v -0.800000 -0.200000 1.000000
v -0.800000 0.200000 1.000000
v -0.800000 -0.200000 -1.000000
v -0.800000 0.200000 -1.000000
v 0.800000 -0.200000 1.000000
v 0.800000 0.200000 1.000000
v 0.800000 -0.200000 -1.000000
v 0.800000 0.200000 -1.000000
vt 0.375000 0.000000
vt 0.625000 0.000000
vt 0.625000 0.250000
vt 0.375000 0.250000
vt 0.625000 0.500000
vt 0.375000 0.500000
vt 0.625000 0.750000
vt 0.375000 0.750000
vt 0.625000 1.000000
vt 0.375000 1.000000
vt 0.125000 0.500000
vt 0.125000 0.750000
vt 0.875000 0.500000
vt 0.875000 0.750000
vn -1.0000 0.0000 0.0000
vn 0.0000 0.0000 -1.0000
vn 1.0000 0.0000 0.0000
vn 0.0000 0.0000 1.0000
vn 0.0000 -1.0000 0.0000
vn 0.0000 1.0000 0.0000
usemtl Material.003
s off
f 9/21/7 10/22/7 12/23/7 11/24/7
f 11/24/8 12/23/8 16/25/8 15/26/8
f 15/26/9 16/25/9 14/27/9 13/28/9
f 13/28/10 14/27/10 10/29/10 9/30/10
f 11/31/11 15/26/11 13/28/11 9/32/11
f 16/25/12 12/33/12 10/34/12 14/27/12
o Shelf-2_Cube.002
v -0.800000 1.300000 1.000000
v -0.800000 1.700000 1.000000
v -0.800000 1.300000 -1.000000
v -0.800000 1.700000 -1.000000
v 0.800000 1.300000 1.000000
v 0.800000 1.700000 1.000000
v 0.800000 1.300000 -1.000000
v 0.800000 1.700000 -1.000000
vt 0.375000 0.000000
vt 0.625000 0.000000
vt 0.625000 0.250000
vt 0.375000 0.250000
vt 0.625000 0.500000
vt 0.375000 0.500000
vt 0.625000 0.750000
vt 0.375000 0.750000
vt 0.625000 1.000000
vt 0.375000 1.000000
vt 0.125000 0.500000
vt 0.125000 0.750000
vt 0.875000 0.500000
vt 0.875000 0.750000
vn -1.0000 0.0000 0.0000
vn 0.0000 0.0000 -1.0000
vn 1.0000 0.0000 0.0000
vn 0.0000 0.0000 1.0000
vn 0.0000 -1.0000 0.0000
vn 0.0000 1.0000 0.0000
usemtl Material.004
s off
f 17/35/13 18/36/13 20/37/13 19/38/13
f 19/38/14 20/37/14 24/39/14 23/40/14
f 23/40/15 24/39/15 22/41/15 21/42/15
f 21/42/16 22/41/16 18/43/16 17/44/16
f 19/45/17 23/40/17 21/42/17 17/46/17
f 24/39/18 20/47/18 18/48/18 22/41/18
o Shelf-3_Cube.003
v -0.800000 2.600000 1.000000
v -0.800000 3.000000 1.000000
v -0.800000 2.600000 -1.000000
v -0.800000 3.000000 -1.000000
v 0.800000 2.600000 1.000000
v 0.800000 3.000000 1.000000
v 0.800000 2.600000 -1.000000
v 0.800000 3.000000 -1.000000
vt 0.375000 0.000000
vt 0.625000 0.000000
vt 0.625000 0.250000
vt 0.375000 0.250000
vt 0.625000 0.500000
vt 0.375000 0.500000
vt 0.625000 0.750000
vt 0.375000 0.750000
vt 0.625000 1.000000
vt 0.375000 1.000000
vt 0.125000 0.500000
vt 0.125000 0.750000
vt 0.875000 0.500000
vt 0.875000 0.750000
vn -1.0000 0.0000 0.0000
vn 0.0000 0.0000 -1.0000
vn 1.0000 0.0000 0.0000
vn 0.0000 0.0000 1.0000
vn 0.0000 -1.0000 0.0000
vn 0.0000 1.0000 0.0000
usemtl Material.005
s off
f 25/49/19 26/50/19 28/51/19 27/52/19
f 27/52/20 28/51/20 32/53/20 31/54/20
f 31/54/21 32/53/21 30/55/21 29/56/21
f 29/56/22 30/55/22 26/57/22 25/58/22
f 27/59/23 31/54/23 29/56/23 25/60/23
f 32/53/24 28/61/24 26/62/24 30/55/24
o Shelf-4_Cube.004
v -0.800000 -1.700000 1.000000
v -0.800000 -1.300000 1.000000
v -0.800000 -1.700000 -1.000000
v -0.800000 -1.300000 -1.000000
v 0.800000 -1.700000 1.000000
v 0.800000 -1.300000 1.000000
v 0.800000 -1.700000 -1.000000
v 0.800000 -1.300000 -1.000000
vt 0.375000 0.000000
vt 0.625000 0.000000
vt 0.625000 0.250000
vt 0.375000 0.250000
vt 0.625000 0.500000
vt 0.375000 0.500000
vt 0.625000 0.750000
vt 0.375000 0.750000
vt 0.625000 1.000000
vt 0.375000 1.000000
vt 0.125000 0.500000
vt 0.125000 0.750000
vt 0.875000 0.500000
vt 0.875000 0.750000
vn -1.0000 0.0000 0.0000
vn 0.0000 0.0000 -1.0000
vn 1.0000 0.0000 0.0000
vn 0.0000 0.0000 1.0000
vn 0.0000 -1.0000 0.0000
vn 0.0000 1.0000 0.0000
usemtl Material.006
s off
f 33/63/25 34/64/25 36/65/25 35/66/25
f 35/66/26 36/65/26 40/67/26 39/68/26
f 39/68/27 40/67/27 38/69/27 37/70/27
f 37/70/28 38/69/28 34/71/28 33/72/28
f 35/73/29 39/68/29 37/70/29 33/74/29
f 40/67/30 36/75/30 34/76/30 38/69/30
o Shelf-5_Cube.005
v -0.800000 -3.000000 1.000000
v -0.800000 -2.600000 1.000000
v -0.800000 -3.000000 -1.000000
v -0.800000 -2.600000 -1.000000
v 0.800000 -3.000000 1.000000
v 0.800000 -2.600000 1.000000
v 0.800000 -3.000000 -1.000000
v 0.800000 -2.600000 -1.000000
vt 0.375000 0.000000
vt 0.625000 0.000000
vt 0.625000 0.250000
vt 0.375000 0.250000
vt 0.625000 0.500000
vt 0.375000 0.500000
vt 0.625000 0.750000
vt 0.375000 0.750000
vt 0.625000 1.000000
vt 0.375000 1.000000
vt 0.125000 0.500000
vt 0.125000 0.750000
vt 0.875000 0.500000
vt 0.875000 0.750000
vn -1.0000 0.0000 0.0000
vn 0.0000 0.0000 -1.0000
vn 1.0000 0.0000 0.0000
vn 0.0000 0.0000 1.0000
vn 0.0000 -1.0000 0.0000
vn 0.0000 1.0000 0.0000
usemtl Material.007
s off
f 41/77/31 42/78/31 44/79/31 43/80/31
f 43/80/32 44/79/32 48/81/32 47/82/32
f 47/82/33 48/81/33 46/83/33 45/84/33
f 45/84/34 46/83/34 42/85/34 41/86/34
f 43/87/35 47/82/35 45/84/35 41/88/35
f 48/81/36 44/89/36 42/90/36 46/83/36
o Side-1_Cube.006
v 0.800000 3.000000 -1.400000
v 0.800000 -3.000000 -1.400000
v 0.800000 3.000000 -1.000000
v 0.800000 -3.000000 -1.000000
v -1.200000 3.000000 -1.400000
v -1.200000 -3.000000 -1.400000
v -1.200000 3.000000 -1.000000
v -1.200000 -3.000000 -1.000000
vt 0.375000 0.000000
vt 0.625000 0.000000
vt 0.625000 0.250000
vt 0.375000 0.250000
vt 0.375000 0.250000
vt 0.625000 0.250000
vt 0.625000 0.500000
vt 0.375000 0.500000
vt 0.625000 0.750000
vt 0.375000 0.750000
vt 0.625000 0.750000
vt 0.625000 1.000000
vt 0.375000 1.000000
vt 0.125000 0.500000
vt 0.375000 0.500000
vt 0.375000 0.750000
vt 0.125000 0.750000
vt 0.625000 0.500000
vt 0.875000 0.500000
vt 0.875000 0.750000
vn 0.0000 1.0000 0.0000
vn 0.0000 0.0000 1.0000
vn -1.0000 0.0000 0.0000
vn 0.0000 -1.0000 0.0000
vn 1.0000 0.0000 0.0000
vn 0.0000 0.0000 -1.0000
usemtl Material.001
s off
f 49/91/37 53/92/37 55/93/37 51/94/37
f 52/95/38 51/96/38 55/97/38 56/98/38
f 56/98/39 55/97/39 53/99/39 54/100/39
f 54/100/40 50/101/40 52/102/40 56/103/40
f 50/104/41 49/105/41 51/106/41 52/107/41
f 54/108/42 53/109/42 49/110/42 50/101/42
o Side-2_Cube.007
v 0.800000 3.000000 1.000000
v 0.800000 -3.000000 1.000000
v 0.800000 3.000000 1.400000
v 0.800000 -3.000000 1.400000
v -1.200000 3.000000 1.000000
v -1.200000 -3.000000 1.000000
v -1.200000 3.000000 1.400000
v -1.200000 -3.000000 1.400000
vt 0.375000 0.000000
vt 0.625000 0.000000
vt 0.625000 0.250000
vt 0.375000 0.250000
vt 0.375000 0.250000
vt 0.625000 0.250000
vt 0.625000 0.500000
vt 0.375000 0.500000
vt 0.625000 0.750000
vt 0.375000 0.750000
vt 0.625000 0.750000
vt 0.625000 1.000000
vt 0.375000 1.000000
vt 0.125000 0.500000
vt 0.375000 0.500000
vt 0.375000 0.750000
vt 0.125000 0.750000
vt 0.625000 0.500000
vt 0.875000 0.500000
vt 0.875000 0.750000
vn 0.0000 1.0000 0.0000
vn 0.0000 0.0000 1.0000
vn -1.0000 0.0000 0.0000
vn 0.0000 -1.0000 0.0000
vn 1.0000 0.0000 0.0000
vn 0.0000 0.0000 -1.0000
usemtl Material.002
s off
f 57/111/43 61/112/43 63/113/43 59/114/43
f 60/115/44 59/116/44 63/117/44 64/118/44
f 64/118/45 63/117/45 61/119/45 62/120/45
f 62/120/46 58/121/46 60/122/46 64/123/46
f 58/124/47 57/125/47 59/126/47 60/127/47
f 62/128/48 61/129/48 57/130/48 58/121/48
